<?xml version="1.0" encoding="UTF-8" standalone="no"?>
<!-- Created with Inkscape (http://www.inkscape.org/) -->

<svg
   width="210mm"
   height="297mm"
   viewBox="0 0 210 297"
   version="1.1"
   id="svg5"
   inkscape:version="1.1.2 (1:1.1+202202050852+0a00cf5339)"
   sodipodi:docname="dragonborn.svg"
   xmlns:inkscape="http://www.inkscape.org/namespaces/inkscape"
   xmlns:sodipodi="http://sodipodi.sourceforge.net/DTD/sodipodi-0.dtd"
   xmlns="http://www.w3.org/2000/svg"
   xmlns:svg="http://www.w3.org/2000/svg">
  <sodipodi:namedview
     id="namedview7"
     pagecolor="#ffffff"
     bordercolor="#666666"
     borderopacity="1.0"
     inkscape:pageshadow="2"
     inkscape:pageopacity="0.0"
     inkscape:pagecheckerboard="0"
     inkscape:document-units="mm"
     showgrid="false"
     inkscape:zoom="0.46057099"
     inkscape:cx="137.87234"
     inkscape:cy="694.78975"
     inkscape:window-width="1362"
     inkscape:window-height="729"
     inkscape:window-x="0"
     inkscape:window-y="18"
     inkscape:window-maximized="1"
     inkscape:current-layer="layer1" />
  <defs
     id="defs2" />
  <g
     inkscape:label="Layer 1"
     inkscape:groupmode="layer"
     id="layer1">
    <g
       id="Letter_A"
       transform="translate(33.985413,1.2471524)">
      <path
         style="fill:#000000;fill-opacity:1;stroke:#000000;stroke-width:0.265;stroke-linecap:round;stroke-linejoin:round;stroke-miterlimit:4;stroke-dasharray:none;stroke-opacity:1"
         d="m 52.907847,67.123346 -1.280022,-1.132911 1.329203,-1.051645 1.17738,1.043374 z"
         id="path128" />
      <path
         style="fill:#000000;fill-opacity:1;stroke:#000000;stroke-width:0.265;stroke-linecap:round;stroke-linejoin:round;stroke-miterlimit:4;stroke-dasharray:none;stroke-opacity:1"
         d="m 57.056731,63.577265 -0.0063,0.731523 1.084307,0.199435 0.180102,2.396569 0.399698,-1.130337 1.112433,-2.015429 z"
         id="path130" />
      <path
         style="fill:#000000;fill-opacity:1;stroke:#000000;stroke-width:0.265;stroke-linecap:round;stroke-linejoin:round;stroke-miterlimit:4;stroke-dasharray:none;stroke-opacity:1"
         d="m 56.118759,67.069435 -0.445606,0.394642 0.490665,0.565488 -3.402165,3.095231 -0.677149,0.140823 -1.724271,1.907405 3.172876,-1.728391 0.589687,-0.176606 3.605249,-2.743015 z"
         id="path132"
         sodipodi:nodetypes="cccccccccc" />
    </g>
    <g
       id="Letter_B"
       transform="translate(27.115259,23.257315)">
      <path
         style="fill:#000000;fill-opacity:1;stroke:#000000;stroke-width:0.264583px;stroke-linecap:round;stroke-linejoin:round;stroke-opacity:1"
         d="m 85.091159,43.395869 0.076,-2.135778 -3.06567,0.288272 -0.41532,0.326927 -5.54699,0.494458 0.16143,0.331828 7.64243,-0.134782 z"
         id="path1913" />
      <path
         style="fill:#000000;fill-opacity:1;stroke:#000000;stroke-width:0.264583px;stroke-linecap:round;stroke-linejoin:round;stroke-opacity:1"
         d="m 81.422549,44.682225 1.72431,1.557184 -3.53561,2.836204 -1.31407,0.556397 -2.41161,1.53007 1.8086,-2.159423 0.64894,-0.06781 3.18449,-2.928758 -0.35357,-0.829347 z"
         id="path1915" />
      <path
         style="fill:#000000;fill-opacity:1;stroke:#000000;stroke-width:0.264583px;stroke-linecap:round;stroke-linejoin:round;stroke-opacity:1"
         d="m 84.406479,49.42213 -1.11438,-0.968555 -1.10905,0.97777 1.00444,1.022744 z"
         id="path1917" />
    </g>
    <g
       id="Letter_D"
       transform="translate(63.186282,0.93514953)">
      <path
         style="fill:#000000;fill-opacity:1;stroke:#000000;stroke-width:0.265;stroke-linecap:round;stroke-linejoin:round;stroke-miterlimit:4;stroke-dasharray:none;stroke-opacity:1"
         d="m 57.519983,63.602656 0.0995,0.603245 0.57688,0.200125 0.0976,9.896256 0.3755,-0.0359 c 0,0 0.99775,-5.17062 0.96401,-7.780409 -0.0337,-2.609789 -0.064,-2.982071 -0.064,-2.982071 z"
         id="path2091" />
      <path
         style="fill:#000000;fill-opacity:1;stroke:#000000;stroke-width:0.265;stroke-linecap:round;stroke-linejoin:round;stroke-miterlimit:4;stroke-dasharray:none;stroke-opacity:1"
         d="m 62.686263,63.727391 -1.32096,1.178163 1.18476,1.017223 1.1686,-1.031481 z"
         id="path2093" />
      <path
         style="fill:#000000;fill-opacity:1;stroke:#000000;stroke-width:0.265;stroke-linecap:round;stroke-linejoin:round;stroke-miterlimit:4;stroke-dasharray:none;stroke-opacity:1"
         d="m 64.447413,63.655493 v 0.70017 l 0.90827,0.32372 -0.01,4.210624 1.77715,-5.099894 z"
         id="path2095" />
    </g>
    <g
       id="Letter_E"
       transform="translate(0.11841236,0.28799131)">
      <path
         style="fill:#000000;fill-opacity:1;stroke:#000000;stroke-width:0.265;stroke-linecap:round;stroke-linejoin:round;stroke-miterlimit:4;stroke-dasharray:none;stroke-opacity:1"
         d="m 148.10543,66.879199 0.0391,-2.01241 c 0,0 -3.11167,0.164544 -3.80194,0.439431 -0.69026,0.274883 -2.22564,0.187139 -2.22564,0.187139 l -3.14359,0.309989 0.15984,0.429379 7.72031,0.02588 z"
         id="path2269" />
      <path
         style="fill:#000000;fill-opacity:1;stroke:#000000;stroke-width:0.265;stroke-linecap:round;stroke-linejoin:round;stroke-miterlimit:4;stroke-dasharray:none;stroke-opacity:1"
         d="m 146.682,69.73141 -1.78308,-1.560652 -0.34812,0.81961 0.45046,0.501819 -2.92346,2.617724 -1.66174,0.987206 -1.16209,1.609394 2.49201,-1.442501 1.4992,-0.768228 z"
         id="path2271" />
      <path
         style="fill:#000000;fill-opacity:1;stroke:#000000;stroke-width:0.265;stroke-linecap:round;stroke-linejoin:round;stroke-miterlimit:4;stroke-dasharray:none;stroke-opacity:1"
         d="m 142.21239,69.801739 -0.97085,-0.882769 -1.20524,0.950611 1.08832,0.969158 z"
         id="path2273" />
    </g>
    <g
       id="Letter_F"
       transform="translate(-0.0134172,0.08717166)">
      <path
         style="fill:#000000;fill-opacity:1;stroke:#000000;stroke-width:0.264583px;stroke-linecap:round;stroke-linejoin:round;stroke-opacity:1"
         d="m 163.35644,64.824694 1.92682,-0.06785 c 0,0 0.22624,5.684851 -0.81587,10.451444 0,0 -0.24217,0.142286 -0.31398,-0.946358 -0.0718,-1.088643 -0.10251,-8.744255 -0.10251,-8.744255 l -0.74261,-0.220626 z"
         id="path2447" />
      <path
         style="fill:#000000;fill-opacity:1;stroke:#000000;stroke-width:0.264583px;stroke-linecap:round;stroke-linejoin:round;stroke-opacity:1"
         d="m 160.48605,66.090593 c 0.51367,0.262789 2.66007,0.328993 2.66007,0.328993 0,0 -0.016,0.820701 -0.25696,1.199563 -0.24092,0.378862 -0.88873,1.970196 -0.88873,1.970196 l -0.58424,-0.166807 -0.12916,-2.25562 -0.94788,-0.265319 z"
         id="path2449" />
      <path
         style="fill:#000000;fill-opacity:1;stroke:#000000;stroke-width:0.264583px;stroke-linecap:round;stroke-linejoin:round;stroke-opacity:1"
         d="m 156.92667,68.833941 c 0.90222,0.355605 2.57158,0.305467 2.57158,0.305467 l -0.97075,4.965274 -0.75753,0.614397 0.10474,-4.752436 -1.05627,-0.442338 z"
         id="path2451" />
    </g>
    <g
       id="Letter_G"
       transform="translate(0.18615711,0.1576683)">
      <path
         style="fill:#000000;fill-opacity:1;stroke:#000000;stroke-width:0.265;stroke-linecap:round;stroke-linejoin:round;stroke-miterlimit:4;stroke-dasharray:none;stroke-opacity:1"
         d="m 178.01668,64.570109 2.48796,0.337407 c 0,0 -0.7051,3.716806 -0.99868,4.26334 -0.29358,0.546531 -0.65095,0.763693 -0.65095,0.763693 l 0.0164,-4.01203 c 0,0 -0.99106,-0.377473 -1.08892,-0.649663 -0.0979,-0.27219 0.23423,-0.702747 0.23423,-0.702747 z"
         id="path2625" />
      <path
         style="fill:#000000;fill-opacity:1;stroke:#000000;stroke-width:0.265;stroke-linecap:round;stroke-linejoin:round;stroke-miterlimit:4;stroke-dasharray:none;stroke-opacity:1"
         d="m 175.17679,71.929836 1.33856,1.242719 -1.33296,1.002432 -1.33254,-1.179735 z"
         id="path2627" />
      <path
         style="fill:#000000;fill-opacity:1;stroke:#000000;stroke-width:0.265;stroke-linecap:round;stroke-linejoin:round;stroke-miterlimit:4;stroke-dasharray:none;stroke-opacity:1"
         d="m 182.05866,68.270767 -0.44136,0.551694 c 0,0 0.42981,0.568489 0.26538,0.861488 -0.16442,0.293002 -3.36412,2.850846 -3.36412,2.850846 l -0.54271,0.02204 -1.54398,2.07568 3.61956,-1.96994 3.7534,-2.803112 z"
         id="path2629" />
    </g>
    <g
       id="Letter_H"
       transform="translate(-0.29046321,-0.26153862)">
      <path
         style="fill:#000000;fill-opacity:1;stroke:#000000;stroke-width:0.265;stroke-linecap:round;stroke-linejoin:round;stroke-miterlimit:4;stroke-dasharray:none;stroke-opacity:1"
         d="m 85.579801,97.720257 1.193257,1.038159 -1.262861,1.147199 -1.120921,-1.012259 z"
         id="path2803" />
      <path
         style="fill:#000000;fill-opacity:1;stroke:#000000;stroke-width:0.265;stroke-linecap:round;stroke-linejoin:round;stroke-miterlimit:4;stroke-dasharray:none;stroke-opacity:1"
         d="m 90.414326,96.297908 -0.05742,0.56022 0.736169,0.281051 0.274756,9.775591 c 0,0 0.918972,-4.28897 1.015866,-6.66446 0.09689,-2.375486 -0.03654,-3.804694 -0.03654,-3.804694 z"
         id="path2805" />
      <path
         style="fill:#000000;fill-opacity:1;stroke:#000000;stroke-width:0.265;stroke-linecap:round;stroke-linejoin:round;stroke-miterlimit:4;stroke-dasharray:none;stroke-opacity:1"
         d="m 89.708462,105.81251 c 0,0 -1.238199,-0.26842 -1.83049,-0.16872 -0.592294,0.0997 -0.651246,0.15439 -0.651246,0.15439 0,0 -0.07952,-0.37694 0.11797,-0.6478 0.197493,-0.27085 0.803854,-0.45949 0.803854,-0.45949 l 0.05156,-4.45979 0.604033,0.50447 0.156935,2.60804 0.391671,0.53116 0.03512,1.23253 0.32239,0.22142 z"
         id="path2807" />
    </g>
    <g
       id="Letter_I"
       transform="translate(0.20204513,0.08832966)">
      <path
         style="fill:#000000;fill-opacity:1;stroke:#000000;stroke-width:0.264583px;stroke-linecap:round;stroke-linejoin:round;stroke-opacity:1"
         d="m 103.97938,96.340429 0.0554,0.561872 0.73392,0.267168 0.2896,9.799871 0.92466,-5.3288 0.0636,-5.28861 z"
         id="path2981" />
      <path
         style="fill:#000000;fill-opacity:1;stroke:#000000;stroke-width:0.264583px;stroke-linecap:round;stroke-linejoin:round;stroke-opacity:1"
         d="m 101.29245,98.865906 2.40138,0.06833 c 0,0 -0.73231,1.641094 -1.04001,1.775184 -0.30771,0.13411 -0.38701,0.0693 -0.38701,0.0693 l -0.0149,-1.212133 -0.97879,-0.343369 z"
         id="path2983" />
      <path
         style="fill:#000000;fill-opacity:1;stroke:#000000;stroke-width:0.264583px;stroke-linecap:round;stroke-linejoin:round;stroke-opacity:1"
         d="m 108.29239,96.540332 -0.0254,0.586266 0.88537,0.149675 0.0593,2.206514 0.37929,0.275378 0.13336,-0.951193 1.17617,-2.170977 z"
         id="path3098" />
    </g>
    <g
       id="Letter_J"
       transform="translate(0.40786036,0.07149956)">
      <path
         style="fill:#000000;fill-opacity:1;stroke:#000000;stroke-width:0.265;stroke-linecap:round;stroke-linejoin:round;stroke-miterlimit:4;stroke-dasharray:none;stroke-opacity:1"
         d="m 119.53693,97.965232 1.78903,-1.463736 0.89225,0.703059 0.0744,0.422794 0.41932,-0.0099 2.06926,3.120601 -0.58371,0.0721 c 0,0 -2.72437,-2.69332 -3.00458,-2.852027 -0.2802,-0.158711 -0.43071,-0.04683 -0.61368,0.03903 -0.18297,0.08586 -0.19406,0.29069 -1.04233,-0.03184 z"
         id="path3362" />
      <path
         style="fill:#000000;fill-opacity:1;stroke:#000000;stroke-width:0.265;stroke-linecap:round;stroke-linejoin:round;stroke-miterlimit:4;stroke-dasharray:none;stroke-opacity:1"
         d="m 122.98358,100.6563 c 0,0 -0.98987,-0.0291 -2.36643,-0.16059 l -0.29404,0.58579 1.00949,0.53824 -0.004,4.58419 c 0,0 0.73763,-0.83934 0.80944,-1.46868 0.0718,-0.62934 0.43797,-2.23451 0.43797,-2.23451 z"
         id="path3364" />
      <path
         style="fill:#000000;fill-opacity:1;stroke:#000000;stroke-width:0.265;stroke-linecap:round;stroke-linejoin:round;stroke-miterlimit:4;stroke-dasharray:none;stroke-opacity:1"
         d="m 127.91005,104.0607 -2.55606,0.17919 -0.10223,-0.53754 1.00846,-0.73153 -0.015,-4.442544 0.50477,0.08111 0.43606,3.068134 z"
         id="path3366" />
    </g>
    <g
       id="Letter_K"
       transform="translate(0.08269031,-0.18399081)">
      <path
         style="fill:#000000;fill-opacity:1;stroke:#000000;stroke-width:0.265;stroke-linecap:round;stroke-linejoin:round;stroke-miterlimit:4;stroke-dasharray:none;stroke-opacity:1"
         d="m 145.77196,98.564651 0.12347,-2.161945 -3.56501,0.563915 -5.73929,0.386506 0.003,0.412221 8.06526,0.01833 z"
         id="path3540" />
      <path
         style="fill:#000000;fill-opacity:1;stroke:#000000;stroke-width:0.265;stroke-linecap:round;stroke-linejoin:round;stroke-miterlimit:4;stroke-dasharray:none;stroke-opacity:1"
         d="m 145.77985,99.345564 -2.08283,0.04644 -2.111,0.433822 -4.86607,0.549194 0.0916,0.31389 7.95343,0.0194 0.65676,0.67871 0.53418,-0.0718 z"
         id="path3655" />
      <path
         style="fill:#000000;fill-opacity:1;stroke:#000000;stroke-width:0.265;stroke-linecap:round;stroke-linejoin:round;stroke-miterlimit:4;stroke-dasharray:none;stroke-opacity:1"
         d="m 140.53279,101.31893 2.56459,0.30222 -0.98558,2.20357 -0.0584,1.02813 -0.8439,-0.31695 0.10043,-1.84205 -0.91717,-0.61695 z"
         id="path3657" />
    </g>
    <g
       id="Letter_L"
       transform="translate(-0.16339217,0.24345942)">
      <path
         style="fill:#000000;fill-opacity:1;stroke:#000000;stroke-width:0.265;stroke-linecap:round;stroke-linejoin:round;stroke-miterlimit:4;stroke-dasharray:none;stroke-opacity:1"
         d="m 161.04473,96.121589 1.88521,1.651297 -3.49421,2.979524 -1.7677,0.59408 -2.32685,1.34512 2.07341,-2.43704 1.24642,-0.296716 2.42698,-2.519008 -0.43114,-0.561961 z"
         id="path3831" />
      <path
         style="fill:#000000;fill-opacity:1;stroke:#000000;stroke-width:0.265;stroke-linecap:round;stroke-linejoin:round;stroke-miterlimit:4;stroke-dasharray:none;stroke-opacity:1"
         d="m 162.54146,99.769963 1.80288,1.657357 -3.45723,2.81193 -1.391,0.47924 -2.63905,1.67079 1.71782,-2.32603 1.07463,-0.28825 2.86694,-2.69698 -0.37061,-0.56482 z"
         id="path3833" />
      <path
         style="fill:#000000;fill-opacity:1;stroke:#000000;stroke-width:0.265;stroke-linecap:round;stroke-linejoin:round;stroke-miterlimit:4;stroke-dasharray:none;stroke-opacity:1"
         d="m 155.67542,103.3931 1.29603,1.13818 -1.27904,1.09094 -1.27237,-1.07697 z"
         id="path3835" />
    </g>
    <g
       id="Letter_M"
       transform="translate(0.00532602,-0.05182756)">
      <path
         style="fill:#000000;fill-opacity:1;stroke:#000000;stroke-width:0.265;stroke-linecap:round;stroke-linejoin:round;stroke-miterlimit:4;stroke-dasharray:none;stroke-opacity:1"
         d="m 172.94137,96.28407 2.03619,0.180723 c 0,0 0.0256,4.659177 -0.36097,6.970077 -0.38653,2.3109 -0.64196,3.57783 -0.64196,3.57783 l -0.37634,-0.38438 -0.0457,-9.445101 -0.67507,-0.40409 z"
         id="path4009" />
      <path
         style="fill:#000000;fill-opacity:1;stroke:#000000;stroke-width:0.265;stroke-linecap:round;stroke-linejoin:round;stroke-miterlimit:4;stroke-dasharray:none;stroke-opacity:1"
         d="m 177.10137,98.530549 c 0.36808,0.665591 0.43783,0.457981 0.47334,1.293548 0.0355,0.835563 0.97077,4.563783 0.97077,4.563783 l -2.64488,0.0522 -0.21148,-0.79025 1.16706,-0.41613 z"
         id="path4011" />
      <path
         style="fill:#000000;fill-opacity:1;stroke:#000000;stroke-width:0.265;stroke-linecap:round;stroke-linejoin:round;stroke-miterlimit:4;stroke-dasharray:none;stroke-opacity:1"
         d="m 179.31759,100.04599 0.68631,0.75407 c 0,0 0.11481,2.83353 0.86776,4.88899 l -2.50503,0.30067 -0.0718,-0.53646 1.24697,-0.77592 z"
         id="path4013" />
    </g>
    <g
       id="Letter_N"
       transform="translate(-0.00553555,-0.14574733)">
      <path
         style="fill:#000000;fill-opacity:1;stroke:#000000;stroke-width:0.265;stroke-linecap:round;stroke-linejoin:round;stroke-miterlimit:4;stroke-dasharray:none;stroke-opacity:1"
         d="m 88.128553,129.03862 1.23439,-1.10033 1.152035,1.00701 -1.18111,1.14298 z"
         id="path4240" />
      <path
         style="fill:#000000;fill-opacity:1;stroke:#000000;stroke-width:0.265;stroke-linecap:round;stroke-linejoin:round;stroke-miterlimit:4;stroke-dasharray:none;stroke-opacity:1"
         d="m 93.626433,134.73208 0.06174,-2.09431 -2.449772,0.0345 -2.776278,0.49432 -4.023667,0.46944 0.0359,0.42502 7.871791,-0.0699 z"
         id="path4242" />
      <path
         style="fill:#000000;fill-opacity:1;stroke:#000000;stroke-width:0.265;stroke-linecap:round;stroke-linejoin:round;stroke-miterlimit:4;stroke-dasharray:none;stroke-opacity:1"
         d="m 93.61127,137.68687 0.06086,-2.08658 -2.399524,0.0617 -1.781138,0.37578 -4.90052,0.36721 -0.0544,0.46574 7.776591,-0.0246 z"
         id="path4244" />
    </g>
    <g
       id="Letter_O"
       transform="translate(0.125858,0.20158114)">
      <path
         style="fill:#000000;fill-opacity:1;stroke:#000000;stroke-width:0.265;stroke-linecap:round;stroke-linejoin:round;stroke-miterlimit:4;stroke-dasharray:none;stroke-opacity:1"
         d="m 108.11416,131.32956 1.85027,1.78376 -3.26839,2.61353 -1.72655,0.69367 -2.7318,1.51569 2.01381,-2.35108 1.38467,-0.65968 2.40373,-2.24322 -0.19144,-0.60158 z"
         id="path4418" />
      <path
         style="fill:#000000;fill-opacity:1;stroke:#000000;stroke-width:0.265;stroke-linecap:round;stroke-linejoin:round;stroke-miterlimit:4;stroke-dasharray:none;stroke-opacity:1"
         d="m 107.04205,130.24133 1.25143,-2.037 -2.92008,-0.15364 0.23436,0.82493 0.66354,0.0359 0.0954,1.37755 z"
         id="path4420" />
      <path
         style="fill:#000000;fill-opacity:1;stroke:#000000;stroke-width:0.265;stroke-linecap:round;stroke-linejoin:round;stroke-miterlimit:4;stroke-dasharray:none;stroke-opacity:1"
         d="m 109.40925,128.13338 -0.0851,0.66581 0.76473,0.22023 0.081,2.14214 0.60841,0.29694 v -0.94203 l 1.31255,-2.32287 z"
         id="path4422" />
    </g>
    <g
       id="Letter_P"
       transform="translate(0.01328248,0.05479759)">
      <path
         style="fill:#000000;fill-opacity:1;stroke:#000000;stroke-width:0.265;stroke-linecap:round;stroke-linejoin:round;stroke-miterlimit:4;stroke-dasharray:none;stroke-opacity:1"
         d="m 120.68279,128.07143 0.086,0.68772 0.91429,0.11458 0.13115,1.25219 0.4743,-0.0841 1.04205,-1.40584 -0.0954,-0.6569 z"
         id="path4596" />
      <path
         style="fill:#000000;fill-opacity:1;stroke:#000000;stroke-width:0.265;stroke-linecap:round;stroke-linejoin:round;stroke-miterlimit:4;stroke-dasharray:none;stroke-opacity:1"
         d="m 124.58263,128.07627 -0.11935,0.67964 0.83154,0.15596 -0.0401,2.1699 0.69822,0.24466 0.0241,-0.77991 1.23381,-2.37123 z"
         id="path4598" />
      <path
         style="fill:#000000;fill-opacity:1;stroke:#000000;stroke-width:0.265;stroke-linecap:round;stroke-linejoin:round;stroke-miterlimit:4;stroke-dasharray:none;stroke-opacity:1"
         d="m 122.32229,132.40945 1.08708,0.91451 -1.10286,0.91197 -1.15898,-0.90254 z"
         id="path4600" />
    </g>
    <g
       id="Letter_Q"
       transform="translate(0.30556148,0.07892701)">
      <path
         style="fill:#000000;fill-opacity:1;stroke:#000000;stroke-width:0.265;stroke-linecap:round;stroke-linejoin:round;stroke-miterlimit:4;stroke-dasharray:none;stroke-opacity:1"
         d="m 137.49124,129.55103 1.24671,1.15196 -1.28238,1.16328 -1.36473,-1.19964 z"
         id="path4774" />
      <path
         style="fill:#000000;fill-opacity:1;stroke:#000000;stroke-width:0.265;stroke-linecap:round;stroke-linejoin:round;stroke-miterlimit:4;stroke-dasharray:none;stroke-opacity:1"
         d="m 142.66729,127.8474 -0.0329,0.87531 1.00571,0.47375 0.12915,4.44366 0.67093,-0.809 0.22488,-2.44338 0.44469,-0.48645 0.40629,-1.867 z"
         id="path4776" />
      <path
         style="fill:#000000;fill-opacity:1;stroke:#000000;stroke-width:0.265;stroke-linecap:round;stroke-linejoin:round;stroke-miterlimit:4;stroke-dasharray:none;stroke-opacity:1"
         d="m 141.72963,131.42261 1.56121,1.50887 -3.34476,3.04433 -1.34807,0.29911 -2.6149,1.39437 5.37028,-4.93538 -0.17585,-0.79798 z"
         id="path4778" />
    </g>
    <g
       id="Letter_R"
       transform="translate(-0.08617766,0.25724508)">
      <path
         style="fill:#000000;fill-opacity:1;stroke:#000000;stroke-width:0.264583px;stroke-linecap:round;stroke-linejoin:round;stroke-opacity:1"
         d="m 153.94758,127.99057 0.0359,0.58528 0.61214,0.16899 0.14856,9.48114 0.42033,0.26993 0.84283,-5.33526 -0.019,-5.1871 z"
         id="path4952" />
      <path
         style="fill:#000000;fill-opacity:1;stroke:#000000;stroke-width:0.264583px;stroke-linecap:round;stroke-linejoin:round;stroke-opacity:1"
         d="m 157.07103,131.70651 -0.0337,0.68041 0.69533,0.0867 -0.15874,1.22462 0.84727,-0.12918 1.09278,-1.39833 -0.0355,-0.48183 z"
         id="path4954" />
      <path
         style="fill:#000000;fill-opacity:1;stroke:#000000;stroke-width:0.264583px;stroke-linecap:round;stroke-linejoin:round;stroke-opacity:1"
         d="m 160.03622,128.49739 -0.0663,0.8339 0.97365,0.28177 -0.0372,4.8157 0.7933,-0.72945 0.27786,-2.34126 0.74769,-2.65488 z"
         id="path4956" />
    </g>
    <g
       id="Letter_S"
       transform="translate(0.2324983,0.23006712)">
      <path
         style="fill:#000000;fill-opacity:1;stroke:#000000;stroke-width:0.265;stroke-linecap:round;stroke-linejoin:round;stroke-miterlimit:4;stroke-dasharray:none;stroke-opacity:1"
         d="m 174.01008,127.94445 -0.0854,0.51445 0.6568,0.27964 0.0809,9.44771 0.43998,0.38456 0.84746,-6.64381 0.002,-3.96363 z"
         id="path5130" />
      <path
         style="fill:#000000;fill-opacity:1;stroke:#000000;stroke-width:0.265;stroke-linecap:round;stroke-linejoin:round;stroke-miterlimit:4;stroke-dasharray:none;stroke-opacity:1"
         d="m 177.90989,128.23139 -0.21099,0.54041 0.96585,0.55206 0.008,4.56518 0.83665,-1.33803 0.0327,-1.6931 0.86066,-2.42089 z"
         id="path5132" />
      <path
         style="fill:#000000;fill-opacity:1;stroke:#000000;stroke-width:0.265;stroke-linecap:round;stroke-linejoin:round;stroke-miterlimit:4;stroke-dasharray:none;stroke-opacity:1"
         d="m 171.47888,131.82174 2.3691,0.28856 -0.91468,5.10438 -0.69384,0.46933 0.089,-4.58881 -1.11941,-0.53472 z"
         id="path5134" />
    </g>
    <g
       id="Letter_T"
       transform="translate(-0.30488501,-0.40288724)">
      <path
         style="fill:#000000;fill-opacity:1;stroke:#000000;stroke-width:0.265;stroke-linecap:round;stroke-linejoin:round;stroke-miterlimit:4;stroke-dasharray:none;stroke-opacity:1"
         d="m 93.532231,167.0283 0.05261,1.9833 -1.045441,-0.54613 -8.156543,-0.24332 0.122748,-0.3735 z"
         id="path5385" />
      <path
         style="fill:#000000;fill-opacity:1;stroke:#000000;stroke-width:0.265;stroke-linecap:round;stroke-linejoin:round;stroke-miterlimit:4;stroke-dasharray:none;stroke-opacity:1"
         d="m 87.5505,160.82409 2.451618,0.16393 -0.940176,5.07304 -0.709832,0.44629 -0.02278,-4.47734 -0.935109,-0.66849 z"
         id="path5387" />
      <path
         style="fill:#000000;fill-opacity:1;stroke:#000000;stroke-width:0.265;stroke-linecap:round;stroke-linejoin:round;stroke-miterlimit:4;stroke-dasharray:none;stroke-opacity:1"
         d="m 90.891232,159.76989 -0.222517,0.64336 0.90329,0.29645 0.235254,4.69213 0.71197,-1.04263 0.05464,-2.21722 0.463499,-0.44906 0.317619,-1.89188 z"
         id="path5389" />
    </g>
    <g
       id="Letter_U"
       transform="translate(0.18297409,0.44905636)">
      <path
         style="fill:#000000;fill-opacity:1;stroke:#000000;stroke-width:0.265;stroke-linecap:round;stroke-linejoin:round;stroke-miterlimit:4;stroke-dasharray:none;stroke-opacity:1"
         d="m 102.39831,165.6009 2.39292,-0.25678 -0.82252,-4.98724 -0.75331,-0.62852 -0.34604,4.89347 z"
         id="path5563" />
      <path
         style="fill:#000000;fill-opacity:1;stroke:#000000;stroke-width:0.265;stroke-linecap:round;stroke-linejoin:round;stroke-miterlimit:4;stroke-dasharray:none;stroke-opacity:1"
         d="m 106.15659,159.39374 0.0416,0.81294 0.87846,0.22979 0.10874,4.70931 0.81521,-1.562 0.15723,-1.86199 0.34727,-0.39834 -0.0189,-0.97534 0.25506,-0.35872 -0.11803,-0.54253 z"
         id="path5565" />
      <path
         style="fill:#000000;fill-opacity:1;stroke:#000000;stroke-width:0.265;stroke-linecap:round;stroke-linejoin:round;stroke-miterlimit:4;stroke-dasharray:none;stroke-opacity:1"
         d="m 109.1321,159.50578 0.14863,0.65609 0.63154,0.30865 0.032,9.75583 1.05956,-5.04182 0.1776,-5.58554 z"
         id="path5567" />
    </g>
    <g
       id="Letter_V"
       transform="translate(-0.35697932,-0.03695018)">
      <path
         style="fill:#000000;fill-opacity:1;stroke:#000000;stroke-width:0.265;stroke-linecap:round;stroke-linejoin:round;stroke-miterlimit:4;stroke-dasharray:none;stroke-opacity:1"
         d="m 119.8779,160.84771 1.76564,-1.41159 1.04834,1.2037 0.55061,0.13955 1.74158,2.9636 -3.60334,-2.84243 -0.99425,0.28329 z"
         id="path6013" />
      <path
         style="fill:#000000;fill-opacity:1;stroke:#000000;stroke-width:0.265;stroke-linecap:round;stroke-linejoin:round;stroke-miterlimit:4;stroke-dasharray:none;stroke-opacity:1"
         d="m 128.74437,160.26262 1.72745,1.68417 -3.68763,2.8604 -1.32938,0.53147 -2.70947,1.47184 2.13208,-2.28049 1.25493,-0.628 2.6359,-2.43253 -0.42641,-0.67681 z"
         id="path6015" />
      <path
         style="fill:#000000;fill-opacity:1;stroke:#000000;stroke-width:0.265;stroke-linecap:round;stroke-linejoin:round;stroke-miterlimit:4;stroke-dasharray:none;stroke-opacity:1"
         d="m 127.831,166.70876 2.68069,0.14108 -1.15818,2.23118 -0.59338,-0.0316 0.0718,-1.355 -1.13245,-0.35637 z"
         id="path6017" />
    </g>
    <g
       id="Letter_W"
       transform="translate(-0.26275186,-0.44676889)">
      <path
         style="fill:#000000;fill-opacity:1;stroke:#000000;stroke-width:0.265;stroke-linecap:round;stroke-linejoin:round;stroke-miterlimit:4;stroke-dasharray:none;stroke-opacity:1"
         d="m 140.82603,163.02556 1.85548,-1.47085 3.228,4.26044 -3.44436,-2.76112 z"
         id="path6191" />
      <path
         style="fill:#000000;fill-opacity:1;stroke:#000000;stroke-width:0.265;stroke-linecap:round;stroke-linejoin:round;stroke-miterlimit:4;stroke-dasharray:none;stroke-opacity:1"
         d="m 145.6784,160.72509 0.14769,0.69116 0.81052,0.0875 -0.10864,1.20787 0.86749,-0.0423 1.08246,-1.8551 z"
         id="path6193" />
      <path
         style="fill:#000000;fill-opacity:1;stroke:#000000;stroke-width:0.265;stroke-linecap:round;stroke-linejoin:round;stroke-miterlimit:4;stroke-dasharray:none;stroke-opacity:1"
         d="m 139.13209,167.78691 9.25841,-0.95714 0.0414,2.13702 -1.37129,-0.60052 -7.62677,-0.12917 z"
         id="path6195" />
    </g>
    <g
       id="Letter_X"
       transform="translate(-0.52552882,-0.14393733)">
      <path
         style="fill:#000000;fill-opacity:1;stroke:#000000;stroke-width:0.265;stroke-linecap:round;stroke-linejoin:round;stroke-miterlimit:4;stroke-dasharray:none;stroke-opacity:1"
         d="m 158.44099,160.0809 1.16538,1.15342 -1.17671,1.07898 -1.19442,-1.13787 z"
         id="path6369" />
      <path
         style="fill:#000000;fill-opacity:1;stroke:#000000;stroke-width:0.265;stroke-linecap:round;stroke-linejoin:round;stroke-miterlimit:4;stroke-dasharray:none;stroke-opacity:1"
         d="m 164.89335,160.09117 1.71162,1.67096 -3.77305,3.0814 -1.03205,0.20038 -2.38699,1.62692 -0.54967,-0.20453 2.19758,-1.92229 1.46205,-0.9046 2.15191,-2.25629 -0.38905,-0.68199 z"
         id="path6371" />
      <path
         style="fill:#000000;fill-opacity:1;stroke:#000000;stroke-width:0.265;stroke-linecap:round;stroke-linejoin:round;stroke-miterlimit:4;stroke-dasharray:none;stroke-opacity:1"
         d="m 166.29993,168.89024 0.0148,-2.2346 -3.99983,0.58766 -5.34922,0.52818 0.60899,0.61357 7.48041,-0.094 z"
         id="path6373" />
    </g>
    <g
       id="Letter_Y"
       transform="translate(0.25889006,0.46221376)">
      <path
         style="fill:#000000;fill-opacity:1;stroke:#000000;stroke-width:0.265;stroke-linecap:round;stroke-linejoin:round;stroke-miterlimit:4;stroke-dasharray:none;stroke-opacity:1"
         d="m 175.35224,160.16235 2.55953,0.16558 0.0404,0.62199 -1.2975,2.70161 -0.49113,-0.3823 0.12577,-1.9744 -1.20256,-0.594 z"
         id="path6547" />
      <path
         style="fill:#000000;fill-opacity:1;stroke:#000000;stroke-width:0.265;stroke-linecap:round;stroke-linejoin:round;stroke-miterlimit:4;stroke-dasharray:none;stroke-opacity:1"
         d="m 180.34855,159.0843 -0.0152,0.83936 0.94992,0.31025 -0.1626,4.55076 0.78356,-0.63815 0.11727,-2.53292 0.73801,-2.28094 z"
         id="path6549" />
      <path
         style="fill:#000000;fill-opacity:1;stroke:#000000;stroke-width:0.265;stroke-linecap:round;stroke-linejoin:round;stroke-miterlimit:4;stroke-dasharray:none;stroke-opacity:1"
         d="m 178.42266,162.90486 0.79917,0.84276 0.0812,2.34222 0.7971,2.58689 -2.65644,0.18532 -0.10334,-0.65096 1.02091,-0.67029 z"
         id="path6551" />
    </g>
    <g
       id="Letter_Z"
       transform="translate(-0.28911677,0.28806061)">
      <path
         style="fill:#000000;fill-opacity:1;stroke:#000000;stroke-width:0.265;stroke-linecap:round;stroke-linejoin:round;stroke-miterlimit:4;stroke-dasharray:none;stroke-opacity:1"
         d="m 84.410911,191.04175 2.550441,0.0934 -0.559155,2.85955 -0.130098,2.39637 -0.896625,0.37599 -0.364173,-4.84747 -0.636288,-0.31837 z"
         id="path6725" />
      <path
         style="fill:#000000;fill-opacity:1;stroke:#000000;stroke-width:0.265;stroke-linecap:round;stroke-linejoin:round;stroke-miterlimit:4;stroke-dasharray:none;stroke-opacity:1"
         d="m 88.114239,191.03483 -0.09403,0.6292 0.785739,0.22823 0.254574,9.98227 1.170649,-6.57184 0.039,-4.12116 z"
         id="path6727" />
      <path
         style="fill:#000000;fill-opacity:1;stroke:#000000;stroke-width:0.265;stroke-linecap:round;stroke-linejoin:round;stroke-miterlimit:4;stroke-dasharray:none;stroke-opacity:1"
         d="m 91.243773,190.93123 -0.03691,0.62489 0.977354,0.58938 0.04201,4.5047 0.717129,-0.49284 1.010817,-5.23283 z"
         id="path6729" />
    </g>
    <rect
       style="fill:none;fill-opacity:1;stroke:#000000;stroke-width:0.264999;stroke-linecap:round;stroke-linejoin:round;stroke-miterlimit:4;stroke-dasharray:none;stroke-opacity:1;stop-color:#000000"
       id="rect6892"
       width="17.844027"
       height="30.955002"
       x="80.061844"
       y="59.863113" />
    <rect
       style="fill:none;fill-opacity:1;stroke:#000000;stroke-width:0.264999;stroke-linecap:round;stroke-linejoin:round;stroke-miterlimit:4;stroke-dasharray:none;stroke-opacity:1;stop-color:#000000"
       id="rect6892-3"
       width="17.844027"
       height="30.955002"
       x="97.905869"
       y="59.863113" />
    <rect
       style="fill:none;fill-opacity:1;stroke:#000000;stroke-width:0.264999;stroke-linecap:round;stroke-linejoin:round;stroke-miterlimit:4;stroke-dasharray:none;stroke-opacity:1;stop-color:#000000"
       id="rect6892-6"
       width="17.844027"
       height="30.955002"
       x="115.7499"
       y="59.863113" />
    <rect
       style="fill:none;fill-opacity:1;stroke:#000000;stroke-width:0.264999;stroke-linecap:round;stroke-linejoin:round;stroke-miterlimit:4;stroke-dasharray:none;stroke-opacity:1;stop-color:#000000"
       id="rect6892-3-7"
       width="17.844027"
       height="30.955002"
       x="133.59392"
       y="59.863113" />
    <rect
       style="fill:none;fill-opacity:1;stroke:#000000;stroke-width:0.264999;stroke-linecap:round;stroke-linejoin:round;stroke-miterlimit:4;stroke-dasharray:none;stroke-opacity:1;stop-color:#000000"
       id="rect6892-5"
       width="17.844027"
       height="30.955002"
       x="151.44016"
       y="59.863113" />
    <rect
       style="fill:none;fill-opacity:1;stroke:#000000;stroke-width:0.264999;stroke-linecap:round;stroke-linejoin:round;stroke-miterlimit:4;stroke-dasharray:none;stroke-opacity:1;stop-color:#000000"
       id="rect6892-3-3"
       width="17.844027"
       height="30.955002"
       x="169.28416"
       y="59.863113" />
    <rect
       style="fill:none;fill-opacity:1;stroke:#000000;stroke-width:0.264999;stroke-linecap:round;stroke-linejoin:round;stroke-miterlimit:4;stroke-dasharray:none;stroke-opacity:1;stop-color:#000000"
       id="rect6892-56"
       width="17.844027"
       height="30.955002"
       x="80.061859"
       y="90.818115" />
    <rect
       style="fill:none;fill-opacity:1;stroke:#000000;stroke-width:0.264999;stroke-linecap:round;stroke-linejoin:round;stroke-miterlimit:4;stroke-dasharray:none;stroke-opacity:1;stop-color:#000000"
       id="rect6892-3-2"
       width="17.844027"
       height="30.955002"
       x="97.905884"
       y="90.818115" />
    <rect
       style="fill:none;fill-opacity:1;stroke:#000000;stroke-width:0.264999;stroke-linecap:round;stroke-linejoin:round;stroke-miterlimit:4;stroke-dasharray:none;stroke-opacity:1;stop-color:#000000"
       id="rect6892-6-9"
       width="17.844027"
       height="30.955002"
       x="115.74991"
       y="90.818115" />
    <rect
       style="fill:none;fill-opacity:1;stroke:#000000;stroke-width:0.264999;stroke-linecap:round;stroke-linejoin:round;stroke-miterlimit:4;stroke-dasharray:none;stroke-opacity:1;stop-color:#000000"
       id="rect6892-3-7-1"
       width="17.844027"
       height="30.955002"
       x="133.59393"
       y="90.818115" />
    <rect
       style="fill:none;fill-opacity:1;stroke:#000000;stroke-width:0.264999;stroke-linecap:round;stroke-linejoin:round;stroke-miterlimit:4;stroke-dasharray:none;stroke-opacity:1;stop-color:#000000"
       id="rect6892-5-2"
       width="17.844027"
       height="30.955002"
       x="151.44017"
       y="90.818115" />
    <rect
       style="fill:none;fill-opacity:1;stroke:#000000;stroke-width:0.264999;stroke-linecap:round;stroke-linejoin:round;stroke-miterlimit:4;stroke-dasharray:none;stroke-opacity:1;stop-color:#000000"
       id="rect6892-3-3-7"
       width="17.844027"
       height="30.955002"
       x="169.28418"
       y="90.818115" />
    <rect
       style="fill:none;fill-opacity:1;stroke:#000000;stroke-width:0.264999;stroke-linecap:round;stroke-linejoin:round;stroke-miterlimit:4;stroke-dasharray:none;stroke-opacity:1;stop-color:#000000"
       id="rect6892-0"
       width="17.844027"
       height="30.955002"
       x="80.061859"
       y="121.77312" />
    <rect
       style="fill:none;fill-opacity:1;stroke:#000000;stroke-width:0.264999;stroke-linecap:round;stroke-linejoin:round;stroke-miterlimit:4;stroke-dasharray:none;stroke-opacity:1;stop-color:#000000"
       id="rect6892-3-9"
       width="17.844027"
       height="30.955002"
       x="97.905884"
       y="121.77312" />
    <rect
       style="fill:none;fill-opacity:1;stroke:#000000;stroke-width:0.264999;stroke-linecap:round;stroke-linejoin:round;stroke-miterlimit:4;stroke-dasharray:none;stroke-opacity:1;stop-color:#000000"
       id="rect6892-6-3"
       width="17.844027"
       height="30.955002"
       x="115.74991"
       y="121.77312" />
    <rect
       style="fill:none;fill-opacity:1;stroke:#000000;stroke-width:0.264999;stroke-linecap:round;stroke-linejoin:round;stroke-miterlimit:4;stroke-dasharray:none;stroke-opacity:1;stop-color:#000000"
       id="rect6892-3-7-6"
       width="17.844027"
       height="30.955002"
       x="133.59393"
       y="121.77312" />
    <rect
       style="fill:none;fill-opacity:1;stroke:#000000;stroke-width:0.264999;stroke-linecap:round;stroke-linejoin:round;stroke-miterlimit:4;stroke-dasharray:none;stroke-opacity:1;stop-color:#000000"
       id="rect6892-5-0"
       width="17.844027"
       height="30.955002"
       x="151.44017"
       y="121.77312" />
    <rect
       style="fill:none;fill-opacity:1;stroke:#000000;stroke-width:0.264999;stroke-linecap:round;stroke-linejoin:round;stroke-miterlimit:4;stroke-dasharray:none;stroke-opacity:1;stop-color:#000000"
       id="rect6892-3-3-6"
       width="17.844027"
       height="30.955002"
       x="169.28418"
       y="121.77312" />
    <rect
       style="fill:none;fill-opacity:1;stroke:#000000;stroke-width:0.264999;stroke-linecap:round;stroke-linejoin:round;stroke-miterlimit:4;stroke-dasharray:none;stroke-opacity:1;stop-color:#000000"
       id="rect6892-2"
       width="17.844027"
       height="30.955002"
       x="80.064072"
       y="152.72812" />
    <rect
       style="fill:none;fill-opacity:1;stroke:#000000;stroke-width:0.264999;stroke-linecap:round;stroke-linejoin:round;stroke-miterlimit:4;stroke-dasharray:none;stroke-opacity:1;stop-color:#000000"
       id="rect6892-3-6"
       width="17.844027"
       height="30.955002"
       x="97.908096"
       y="152.72812" />
    <rect
       style="fill:none;fill-opacity:1;stroke:#000000;stroke-width:0.264999;stroke-linecap:round;stroke-linejoin:round;stroke-miterlimit:4;stroke-dasharray:none;stroke-opacity:1;stop-color:#000000"
       id="rect6892-6-1"
       width="17.844027"
       height="30.955002"
       x="115.75214"
       y="152.72812" />
    <rect
       style="fill:none;fill-opacity:1;stroke:#000000;stroke-width:0.264999;stroke-linecap:round;stroke-linejoin:round;stroke-miterlimit:4;stroke-dasharray:none;stroke-opacity:1;stop-color:#000000"
       id="rect6892-3-7-8"
       width="17.844027"
       height="30.955002"
       x="133.59615"
       y="152.72812" />
    <rect
       style="fill:none;fill-opacity:1;stroke:#000000;stroke-width:0.264999;stroke-linecap:round;stroke-linejoin:round;stroke-miterlimit:4;stroke-dasharray:none;stroke-opacity:1;stop-color:#000000"
       id="rect6892-5-7"
       width="17.844027"
       height="30.955002"
       x="151.44238"
       y="152.72812" />
    <rect
       style="fill:none;fill-opacity:1;stroke:#000000;stroke-width:0.264999;stroke-linecap:round;stroke-linejoin:round;stroke-miterlimit:4;stroke-dasharray:none;stroke-opacity:1;stop-color:#000000"
       id="rect6892-3-3-9"
       width="17.844027"
       height="30.955002"
       x="169.28639"
       y="152.72812" />
    <rect
       style="fill:none;fill-opacity:1;stroke:#000000;stroke-width:0.264999;stroke-linecap:round;stroke-linejoin:round;stroke-miterlimit:4;stroke-dasharray:none;stroke-opacity:1;stop-color:#000000"
       id="rect6892-20"
       width="17.844027"
       height="30.955002"
       x="80.061859"
       y="183.68312" />
    <rect
       style="fill:none;fill-opacity:1;stroke:#000000;stroke-width:0.264999;stroke-linecap:round;stroke-linejoin:round;stroke-miterlimit:4;stroke-dasharray:none;stroke-opacity:1;stop-color:#000000"
       id="rect6892-3-23"
       width="17.844027"
       height="30.955002"
       x="97.905884"
       y="183.68312" />
    <rect
       style="fill:none;fill-opacity:1;stroke:#000000;stroke-width:0.264999;stroke-linecap:round;stroke-linejoin:round;stroke-miterlimit:4;stroke-dasharray:none;stroke-opacity:1;stop-color:#000000"
       id="rect6892-6-7"
       width="17.844027"
       height="30.955002"
       x="115.74991"
       y="183.68312" />
    <rect
       style="fill:none;fill-opacity:1;stroke:#000000;stroke-width:0.264999;stroke-linecap:round;stroke-linejoin:round;stroke-miterlimit:4;stroke-dasharray:none;stroke-opacity:1;stop-color:#000000"
       id="rect6892-3-7-5"
       width="17.844027"
       height="30.955002"
       x="133.59393"
       y="183.68312" />
    <rect
       style="fill:none;fill-opacity:1;stroke:#000000;stroke-width:0.264999;stroke-linecap:round;stroke-linejoin:round;stroke-miterlimit:4;stroke-dasharray:none;stroke-opacity:1;stop-color:#000000"
       id="rect6892-5-9"
       width="17.844027"
       height="30.955002"
       x="151.44017"
       y="183.68312" />
    <rect
       style="fill:none;fill-opacity:1;stroke:#000000;stroke-width:0.264999;stroke-linecap:round;stroke-linejoin:round;stroke-miterlimit:4;stroke-dasharray:none;stroke-opacity:1;stop-color:#000000"
       id="rect6892-3-3-2"
       width="17.844027"
       height="30.955002"
       x="169.28418"
       y="183.68312" />
    <g
       id="Letter_C"
       transform="translate(-34.136094,-31.167845)">
      <path
         style="fill:#000000;fill-opacity:1;stroke:#000000;stroke-width:0.265;stroke-linecap:round;stroke-linejoin:round;stroke-miterlimit:4;stroke-dasharray:none;stroke-opacity:1"
         d="m 136.71731,222.67117 -0.0957,0.68359 1.10515,0.52232 -0.15012,4.47645 0.59535,-0.5958 0.3451,-2.57759 0.69504,-2.45545 z"
         id="path7507" />
      <path
         style="fill:#000000;fill-opacity:1;stroke:#000000;stroke-width:0.265;stroke-linecap:round;stroke-linejoin:round;stroke-miterlimit:4;stroke-dasharray:none;stroke-opacity:1"
         d="m 143.28015,222.57531 0.001,0.75263 0.90501,0.3708 0.0832,4.58836 0.6444,-0.85468 0.7064,-4.67991 z"
         id="path7509" />
      <path
         style="fill:#000000;fill-opacity:1;stroke:#000000;stroke-width:0.265;stroke-linecap:round;stroke-linejoin:round;stroke-miterlimit:4;stroke-dasharray:none;stroke-opacity:1"
         d="m 141.55117,225.62499 1.62653,1.54362 -7.1641,5.10344 2.18757,-2.623 3.23383,-2.62775 -0.39444,-0.69409 z"
         id="path7511" />
    </g>
  </g>
</svg>
